<svg width="24" height="24" viewBox="0 0 24 24" fill="none" xmlns="http://www.w3.org/2000/svg">
<path d="M20.8009 1.75436C20.27 1.4512 19.6528 1.37295 19.0629 1.53399C18.4732 1.69506 17.9814 2.07118 17.6782 2.60209L14.952 7.37149H16.5657L18.8951 3.297C19.0127 3.09116 19.2034 2.94584 19.4321 2.88342C19.6608 2.82097 19.9001 2.85259 20.1059 2.97012C20.4419 3.16195 20.8699 3.0458 21.0619 2.70971C21.2538 2.37359 21.1369 1.94627 20.8009 1.75436Z" fill="#F59E0B"/>
<path d="M18.563 9.98663C18.3152 9.88327 18.0435 9.82583 17.7586 9.82583C17.7122 9.82583 17.6668 9.83061 17.6228 9.83925L17.5695 8.35677C17.5685 8.33087 17.5475 8.30561 17.5216 8.30561H6.63835L8.91507 7.37631L15.112 4.83587C15.47 4.68897 15.6412 4.28087 15.4943 3.92287C15.3473 3.56476 14.9379 3.39437 14.58 3.54127L11.023 5.00121C11.0161 4.97728 11.008 4.95371 10.9983 4.93014C10.8514 4.57211 10.442 4.40108 10.0841 4.54799L6.67005 5.94898C6.31205 6.09588 6.14087 6.50524 6.28781 6.86324C6.29748 6.88685 6.30869 6.90923 6.3205 6.93114L5.22105 7.38235L4.56474 7.65168L2.8116 8.37106C2.4536 8.51797 2.28242 8.92729 2.42936 9.28528C2.54053 9.55627 2.80204 9.72018 3.0778 9.72018C3.16643 9.72018 3.25653 9.70329 3.34354 9.66756L4.22629 9.3053L5.17521 8.91592L5.14189 9.83917C5.09795 9.83053 5.05259 9.82575 5.00604 9.82575C4.72116 9.82575 4.44947 9.88315 4.20169 9.98663C3.445 10.3026 2.91171 11.0501 2.91171 11.92C2.91171 12.7363 3.3814 13.4445 4.06447 13.7898C4.34362 13.931 4.65823 14.0116 4.99124 14.0139L4.75799 20.4813C4.74674 20.7931 4.85981 21.0904 5.07643 21.315C5.29306 21.5396 5.58421 21.6653 5.89618 21.6653H16.8683C17.1803 21.6653 17.4715 21.5396 17.688 21.315C17.9047 21.0905 18.0178 20.7941 18.0065 20.4823L17.7732 14.0144C18.1063 14.0121 18.4209 13.9312 18.7 13.79C19.3831 13.4447 19.8528 12.7364 19.8528 11.9201C19.8529 11.0502 19.3197 10.3027 18.563 9.98663ZM5.04185 12.6149C5.02997 12.6143 5.0182 12.6131 5.00616 12.6131C4.62404 12.6131 4.31322 12.3022 4.31322 11.9202C4.31322 11.538 4.62404 11.2272 5.00616 11.2272C5.03537 11.2272 5.06388 11.2249 5.09211 11.2214L5.04185 12.6149ZM17.7586 12.6131C17.7466 12.6131 17.7348 12.6143 17.7229 12.6149L17.6726 11.2215C17.7009 11.2249 17.7294 11.2273 17.7586 11.2273C18.1407 11.2273 18.4516 11.5381 18.4516 11.9202C18.4516 12.3022 18.1407 12.6131 17.7586 12.6131Z" fill="#F59E0B"/>
</svg>
