<!DOCTYPE svg PUBLIC "-//W3C//DTD SVG 1.1//EN" "http://www.w3.org/Graphics/SVG/1.1/DTD/svg11.dtd">
<!-- Uploaded to: SVG Repo, www.svgrepo.com, Transformed by: SVG Repo Mixer Tools -->
<svg height="800px" width="800px" version="1.1" id="_x32_" xmlns="http://www.w3.org/2000/svg" xmlns:xlink="http://www.w3.org/1999/xlink" viewBox="0 0 512 512" xml:space="preserve" fill="#000000">
<g id="SVGRepo_bgCarrier" stroke-width="0"/>
<g id="SVGRepo_tracerCarrier" stroke-linecap="round" stroke-linejoin="round"/>
<g id="SVGRepo_iconCarrier"> <style type="text/css"> .st0{fill:#F59E0B;} </style> <g> <path class="st0" d="M456.169,230.305c-31.675-12.846-55.203-36.078-78.763-73.623c-27.405-43.677-29.413-80.099-41.628-104.848 C322.908,25.733,293.11,0,256.13,0c-36.971,0-66.778,25.733-79.648,51.834c-12.214,24.749-14.231,68.025-34.774,110.833 c-19.183,39.971-56.507,59.941-85.617,67.638c-25.396,6.73-17.854,28.864-17.854,28.864l22.338,161.51 C67.814,473.028,112.557,512,165.399,512h181.463c52.842,0,97.584-38.972,104.832-91.322l22.33-161.51 C474.024,259.169,480.516,240.182,456.169,230.305z M311.981,181.635c0,17.748-4.476,34.168-7.829,40.972 c-7.672,15.543-25.97,22.264-48.022,22.264c-22.051,0-40.348-6.722-48.022-22.264c-3.344-6.804-7.829-23.224-7.829-40.972v-56.416 c0-17.74,4.484-34.168,7.829-40.955c7.673-15.55,25.97-32.282,48.022-32.282c22.052,0,40.349,16.732,48.022,32.282 c3.353,6.788,7.829,23.216,7.829,40.955V181.635z"/> </g> </g>
</svg>